<svg xmlns="http://www.w3.org/2000/svg" viewBox="0 0 96 48"><defs><style>.cls-1,.cls-3{fill:#e3392c;}.cls-2{fill:#5c1d1a;}.cls-3{isolation:isolate;font-size:4.8px;font-family:ArialMT, Arial;}</style></defs><title>ember-cli-logo-light-background</title><g id="ember-cli-light-background"><path id="text_text--ember" data-name="text text--ember" class="cls-1" d="M67.95,28.65a.78.78,0,0,0-1.14-.72,5.39,5.39,0,0,1-3.11,1.14c-1.45-.14-1-3.4-1-3.4s.31-3-.54-3.23-1.91.78-1.91.78a10.75,10.75,0,0,0-1.94,3.31l-.17.06a23.49,23.49,0,0,0,0-4c-.17-.37-1.74-.34-2,.31A39.87,39.87,0,0,0,54.51,30a11.94,11.94,0,0,1-4.59,2.42c-2.14.34-2.65-1-2.65-1s5.82-1.63,5.62-6.28-4.69-2.93-5.2-2.55A9.05,9.05,0,0,0,43.8,29c0,.15-.07.8-.07.8a20.15,20.15,0,0,1-3.51,1.91s3.51-5.9-.77-8.59C37.51,21.94,36,24.39,36,24.39s5.79-6.45,4.51-11.9c-.61-2.59-1.91-2.87-3.1-2.45a5.39,5.39,0,0,0-2.49,1.77A19.91,19.91,0,0,0,32,20.26c-.54,5-1.34,11.15-1.34,11.15a4.24,4.24,0,0,1-2.14,1.14c-1,.06-.57-3.05-.57-3.05s.8-4.74.74-5.53-.11-1.23-1.05-1.51-2,.91-2,.91S23,27.47,22.74,28.1l-.14.26-.14-.17s1.91-5.59.09-5.68-3,2-3,2S17.43,28,17.34,28.39l-.14-.17a27.87,27.87,0,0,0,.68-5,.92.92,0,0,0-1.11-.8s-1.2-.14-1.51.63a56.75,56.75,0,0,0-1.6,7.5s-3,2.14-5,2.17-1.77-1.25-1.77-1.25,7.22-2.47,5.25-7.35a3.58,3.58,0,0,0-3.37-1.62c-1.46,0-3.26.92-4.43,3.54a11.6,11.6,0,0,0-.88,3.34A2.71,2.71,0,0,1,1.56,29c-.69-.57-1,0-1,0s-1.18,1.5,0,2a15.05,15.05,0,0,0,3,.67h0a5.46,5.46,0,0,0,2.08,3.24c2.14,1.63,6.25-.15,6.25-.15l1.68-.94s.06,1.54,1.28,1.77,1.74,0,3.88-5.2C19.94,27.7,20,27.84,20,27.84l.14,0s-1,5.08-.6,6.45,2,1.23,2,1.23.88.17,1.6-2.34a36.86,36.86,0,0,1,2.08-5.28h.17s-.6,5.19.31,6.85,3.28.56,3.28.56a16.77,16.77,0,0,0,1.91-1.09,6.73,6.73,0,0,0,4.73,1.37c6.19-1.22,8.39-2.86,8.39-2.86a5.11,5.11,0,0,0,4.36,2.94,7.23,7.23,0,0,0,5.82-2.08,2.29,2.29,0,0,0,1.28,2.08c1.31.54,2.2-2.5,2.2-2.5l2.2-6.05h.2s.11,3.94,2.28,4.56,5-1.47,5-1.47a1.48,1.48,0,0,0,.57-1.52Zm-61.36.56c.09-3.39,2.31-4.88,3.08-4.14s.49,2.34-1,3.34S6.59,29.21,6.59,29.21Zm29-13.15s2-5.28,2.51-2.71S33.8,23.57,33.8,23.57A58.32,58.32,0,0,1,35.54,16.06ZM38,30.75a3.35,3.35,0,0,1-4.59,2.08s-.37-1.26.68-4.76,3.54-2.14,3.54-2.14S39.31,27.25,38,30.75Zm9-1.54s-.31-1.11.86-3.25,2.08-1,2.08-1a2.12,2.12,0,0,1-.14,2.71A3.36,3.36,0,0,1,47,29.21"/><path id="text_text--c" data-name="text text--c" class="cls-2" d="M70.06,35.7a4.92,4.92,0,0,1-2.18-.45A4.64,4.64,0,0,1,66.31,34a5.27,5.27,0,0,1-1-1.77A6.75,6.75,0,0,1,65,30.17a7.86,7.86,0,0,1,.27-1.86,15.43,15.43,0,0,1,.59-1.89,9.16,9.16,0,0,1,.78-1.55,6.16,6.16,0,0,1,1.08-1.29,5,5,0,0,1,1.37-.88,4.1,4.1,0,0,1,1.66-.33,4.66,4.66,0,0,1,1.5.23,3.63,3.63,0,0,1,1.18.65,3,3,0,0,1,.77,1,2.78,2.78,0,0,1,.28,1.22,3.15,3.15,0,0,1-.13.9,4.35,4.35,0,0,1-.51,1,2.47,2.47,0,0,1-.73.81,1.53,1.53,0,0,1-.8.21q-.68,0-.87-.33a1.13,1.13,0,0,1-.2-.92q0-.21.24-1a2.37,2.37,0,0,0,0-.48,1.8,1.8,0,0,0-.07-.54.28.28,0,0,0-.29-.21,1.63,1.63,0,0,0-.93.26,2.38,2.38,0,0,0-.66.68A5.63,5.63,0,0,0,69,27.07a11.41,11.41,0,0,0-.38,1.29,6.42,6.42,0,0,0-.14,1c0,.32,0,.58,0,.8a6.11,6.11,0,0,0,.09,1,2.7,2.7,0,0,0,.34,1,2.34,2.34,0,0,0,.67.72,1.83,1.83,0,0,0,1.07.29A3.18,3.18,0,0,0,72,32.73a10.06,10.06,0,0,0,1.56-1,14.28,14.28,0,0,0,1.49-1.33A17.44,17.44,0,0,0,76.32,29l.92,1.55a17.56,17.56,0,0,1-2.17,2.56,13.13,13.13,0,0,1-1.08.94,9.48,9.48,0,0,1-1.22.81,7.27,7.27,0,0,1-1.33.58,4.54,4.54,0,0,1-1.4.22"/><path id="text_text--l" data-name="text text--l" class="cls-2" d="M79.69,25.09Q80.3,24,81,22.66t1.28-2.78q.6-1.43,1-2.86a13.4,13.4,0,0,0,.56-2.65c0-.26,0-.48,0-.67s-.05-.28-.12-.28a1.14,1.14,0,0,0-.79.51,6.85,6.85,0,0,0-.85,1.38,20.48,20.48,0,0,0-1,2.82l-.59,2-.36,1.81a22.49,22.49,0,0,0-.43,3.19Zm0,10.61a1.86,1.86,0,0,1-1.34-.63,5.45,5.45,0,0,1-1.08-1.68,11.4,11.4,0,0,1-.72-2.44A16,16,0,0,1,76.28,28a21.45,21.45,0,0,1,.38-3.51l.39-2.19.58-2.19a24.54,24.54,0,0,1,1.17-3.51,22.61,22.61,0,0,1,1.28-2.47,13.4,13.4,0,0,1,1.45-2,6.67,6.67,0,0,1,1.58-1.34,3.25,3.25,0,0,1,1.68-.49,2,2,0,0,1,1,.24,1.74,1.74,0,0,1,.63.62,2.68,2.68,0,0,1,.33.88,5.45,5.45,0,0,1,.09,1,11.56,11.56,0,0,1-.3,2.58,19.5,19.5,0,0,1-.81,2.64q-.51,1.33-1.17,2.66T83.2,23.58q-.72,1.31-1.45,2.58t-1.35,2.49a2.77,2.77,0,0,0-.14.35c-.05.14-.1.3-.14.47L80,30q-.07.28-.11.55v.19a3.2,3.2,0,0,0,.07.68,3.75,3.75,0,0,0,.18.59,1.77,1.77,0,0,0,.23.42c.08.1.16.15.23.15a2,2,0,0,0,.6-.11,5.62,5.62,0,0,0,.71-.29q.38-.18.77-.42l.77-.48c.58-.38,2.67-1.91,3.3-2.41l.77,3.21c-.82.54-2.71,1.74-3.51,2.17l-1.08.53q-.56.26-1.12.46a9.21,9.21,0,0,1-1.1.32,4.61,4.61,0,0,1-1,.12"/><path id="text_text--i-base" data-name="text text--i-base" class="cls-2" d="M95.92,30.52a1,1,0,0,0-.21-.29,1.15,1.15,0,0,0-.3-.21,1.24,1.24,0,0,0-.34-.11.83.83,0,0,0-.32,0,.57.57,0,0,0-.25.14l-.43.39c-.24.2-.33.29-.62.55s-.78.67-1.18,1a9.46,9.46,0,0,1-1.19.81,2.21,2.21,0,0,1-1.07.33.53.53,0,0,1-.55-.35,2.79,2.79,0,0,1-.13-1,5.55,5.55,0,0,1,.19-1.37q.19-.75.32-1.52a13.56,13.56,0,0,1,.47-1.84q.34-1.08.52-1.77l.31-1.23a3.71,3.71,0,0,0,.14-.83.77.77,0,0,0-.2-.56,1,1,0,0,0-.75-.21,3.54,3.54,0,0,0-.68.07,3.44,3.44,0,0,0-.72.23,2.45,2.45,0,0,0-.62.4,1.09,1.09,0,0,0-.37.61q-.12.48-.63,2.08-.55,2-.73,2.53-.11.29-.49,2.61a12.09,12.09,0,0,0-.19,2,4.44,4.44,0,0,0,.13,1.1,2.09,2.09,0,0,0,.42.85,1.94,1.94,0,0,0,.77.54,3.11,3.11,0,0,0,1.17.19A5.3,5.3,0,0,0,90,35.41a11.92,11.92,0,0,0,1.69-.7,12.73,12.73,0,0,0,1.55-.92A12.43,12.43,0,0,0,94.35,33a7.39,7.39,0,0,0,1.19-1.14,2.09,2.09,0,0,0,.35-.49,1.12,1.12,0,0,0,.11-.44.81.81,0,0,0-.08-.37"/><path id="text_text--i-dot" data-name="text text--i-dot" class="cls-2" d="M90.8,20.85A3,3,0,0,0,92,20.64a2.39,2.39,0,0,0,.81-.55,2.08,2.08,0,0,0,.47-.77,2.74,2.74,0,0,0,.15-.89,1.92,1.92,0,0,0-.18-.86,1.55,1.55,0,0,0-.49-.59,2.15,2.15,0,0,0-.72-.33,3.52,3.52,0,0,0-.88-.11,2.93,2.93,0,0,0-1.25.24,2.43,2.43,0,0,0-.8.58,2.28,2.28,0,0,0-.57,1.44,2,2,0,0,0,.56,1.49,2.37,2.37,0,0,0,1.74.56"/><text class="cls-3" transform="translate(57.96 36.56)">®</text></g></svg>