<svg xmlns="http://www.w3.org/2000/svg" viewBox="0 0 96 48"><defs><style>.cls-1{isolation:isolate;font-size:3.99px;font-family:ArialMT, Arial;}.cls-1,.cls-2{fill:#e3392c;}.cls-3{fill:#5c1d1a;}</style></defs><title>ember-data-logo-light-background</title><g id="ember-data-light-background"><text class="cls-1" transform="translate(48.22 34.44)">®</text><path id="text_text--ember" data-name="text text--ember" class="cls-2" d="M56.57,27.89a.65.65,0,0,0-.94-.6,4.49,4.49,0,0,1-2.59.95c-1.21-.12-.83-2.83-.83-2.83s.26-2.48-.45-2.69-1.6.65-1.6.65a9,9,0,0,0-1.61,2.75l-.14,0a19.6,19.6,0,0,0,0-3.32c-.14-.31-1.45-.29-1.66.26a33.38,33.38,0,0,0-1.33,5.94,9.94,9.94,0,0,1-3.82,2c-1.78.29-2.21-.83-2.21-.83S44.2,28.88,44,25s-3.9-2.44-4.33-2.12a7.54,7.54,0,0,0-3.23,5.28c0,.12-.06.67-.06.67a16.84,16.84,0,0,1-2.92,1.59s2.92-4.92-.64-7.15c-1.61-1-2.9,1.07-2.9,1.07s4.82-5.37,3.75-9.9c-.51-2.16-1.59-2.39-2.58-2A4.49,4.49,0,0,0,29,13.87a16.59,16.59,0,0,0-2.4,7c-.45,4.2-1.12,9.29-1.12,9.29a3.54,3.54,0,0,1-1.78,1c-.85,0-.47-2.54-.47-2.54s.66-3.94.62-4.61-.09-1-.88-1.26-1.64.76-1.64.76-2.25,3.42-2.44,3.94l-.12.21-.12-.14s1.59-4.66.07-4.73-2.52,1.66-2.52,1.66-1.74,2.9-1.8,3.23l-.12-.14a23.52,23.52,0,0,0,.57-4.2.76.76,0,0,0-.93-.67s-1-.12-1.26.52a46.71,46.71,0,0,0-1.33,6.25s-2.49,1.78-4.13,1.8-1.47-1-1.47-1,6-2.06,4.37-6.12a3,3,0,0,0-2.81-1.35c-1.21,0-2.71.76-3.69,2.95a9.6,9.6,0,0,0-.73,2.78A2.26,2.26,0,0,1,1.3,28.2c-.57-.48-.86,0-.86,0s-1,1.25,0,1.63a12.52,12.52,0,0,0,2.49.56h0a4.55,4.55,0,0,0,1.73,2.7c1.78,1.35,5.2-.12,5.2-.12l1.4-.79s0,1.29,1.07,1.47,1.45,0,3.23-4.33c1-2.21,1.12-2.09,1.12-2.09l.12,0s-.8,4.23-.5,5.37,1.66,1,1.66,1,.74.14,1.33-1.95A30.27,30.27,0,0,1,21,27.25h.14s-.5,4.32.26,5.7,2.73.46,2.73.46a14.13,14.13,0,0,0,1.6-.91,5.59,5.59,0,0,0,3.94,1.14c5.16-1,7-2.38,7-2.38a4.26,4.26,0,0,0,3.63,2.45A6,6,0,0,0,45.15,32a1.91,1.91,0,0,0,1.07,1.73c1.09.45,1.83-2.08,1.83-2.08l1.83-5H50s.09,3.28,1.9,3.8,4.16-1.22,4.16-1.22a1.23,1.23,0,0,0,.47-1.26Zm-51.09.47c.07-2.83,1.93-4.06,2.57-3.44s.4,1.95-.81,2.78-1.76.66-1.76.66ZM29.59,17.41s1.69-4.39,2.09-2.26-3.54,8.5-3.54,8.5a48.75,48.75,0,0,1,1.45-6.25Zm2,12.23a2.79,2.79,0,0,1-3.83,1.73s-.31-1,.57-4,2.94-1.78,2.94-1.78S32.73,26.72,31.61,29.64Zm7.48-1.28a4,4,0,0,1,.71-2.71c1-1.78,1.74-.81,1.74-.81a1.76,1.76,0,0,1-.12,2.26,2.79,2.79,0,0,1-2.32,1.26"/><path id="text_text--d" data-name="text text--d" class="cls-3" d="M65,17.18c0-.52.07-.93.07-1.24a2.22,2.22,0,0,0-.11-.84.34.34,0,0,0-.31-.23.82.82,0,0,0-.66.45,4,4,0,0,0-.47,1.16L63.15,18a14.89,14.89,0,0,0-.31,1.64c-.06.53-.11,1-.15,1.45s-.07.73-.08.91c0,.37-.06.72-.08,1.07s0,.66,0,.94,0,.53,0,.74v.6q.62-1.49,1.14-3c.14-.42.29-.86.43-1.31l.42-1.35c.14-.45.26-.89.36-1.33a10.46,10.46,0,0,0,.2-1.25Zm-5.26,7.6a4.42,4.42,0,0,0-2.27,2.51c-.26.64-.45,1.2-.59,1.66a4.69,4.69,0,0,0-.2,1.26,1.33,1.33,0,0,0,0,.35.72.72,0,0,0,.19.31,1,1,0,0,0,.38.23,1.89,1.89,0,0,0,.63.09.94.94,0,0,0,.4-.09,1.67,1.67,0,0,0,.37-.23,2.62,2.62,0,0,0,.34-.33,3.2,3.2,0,0,0,.29-.38,6.59,6.59,0,0,0,.57-1,3.66,3.66,0,0,1-.05-.5c0-.23,0-.58,0-1s0-.85,0-1.15,0-.57,0-.82,0-.45,0-.61a1,1,0,0,0,0-.22Zm7.72,6.58a18.61,18.61,0,0,1-1.56,1.16l-.68.42q-.36.21-.7.37a5.19,5.19,0,0,1-.67.26,2,2,0,0,1-.59.1,2.34,2.34,0,0,1-.47-.07,2.48,2.48,0,0,1-.69-.29,3.3,3.3,0,0,1-.74-.63,3.73,3.73,0,0,1-.65-1.1,10.58,10.58,0,0,1-.88.81,6.47,6.47,0,0,1-1,.67,5.59,5.59,0,0,1-1,.46,3.19,3.19,0,0,1-1,.17,2.5,2.5,0,0,1-1.26-.3,2.71,2.71,0,0,1-.88-.8,3.64,3.64,0,0,1-.52-1.14A5.07,5.07,0,0,1,54,30.13a6.1,6.1,0,0,1,.19-1.46,6.75,6.75,0,0,1,.53-1.44c.23-.46.49-.95.78-1.45a5.34,5.34,0,0,1,1.13-1.38,5.48,5.48,0,0,1,1.46-.94,5.34,5.34,0,0,1,1.6-.4A11.92,11.92,0,0,1,60,20.51l.59-2.37a12.88,12.88,0,0,1,.82-2.34,10.08,10.08,0,0,1,1.09-1.85,5.17,5.17,0,0,1,1.27-1.22,2.51,2.51,0,0,1,1.39-.44,1.47,1.47,0,0,1,.89.27,2,2,0,0,1,.6.73,3.8,3.8,0,0,1,.33,1,7.34,7.34,0,0,1,.1,1.23c0,.26,0,.54,0,.82a10,10,0,0,1-.49,3l-.91,2.73a23,23,0,0,1-1.09,2.67c-.65,1.34-1.06,2.26-1.24,2.74,0,.11-.07.23-.11.38s-.08.31-.11.49-.07.36-.09.54a4.41,4.41,0,0,0,0,.54,4.51,4.51,0,0,0,0,.62,2.4,2.4,0,0,0,.12.52.93.93,0,0,0,.23.37.52.52,0,0,0,.37.14,1.46,1.46,0,0,0,.46-.08,3.6,3.6,0,0,0,.53-.23c.19-.1.38-.21.56-.33l.55-.38c.41-.3.84-.64,1.28-1l.33,2.32"/><path id="text_text--a" data-name="text text--a" class="cls-3" d="M69,30.05a3.75,3.75,0,0,0,0,.56,1.7,1.7,0,0,0,.14.48,1,1,0,0,0,.27.35.67.67,0,0,0,.42.13,1,1,0,0,0,.75-.36,3.41,3.41,0,0,0,.58-.86,6.22,6.22,0,0,0,.4-1,6.79,6.79,0,0,0,.19-.9l.83-3.62a1.9,1.9,0,0,0-.89.23,3.37,3.37,0,0,0-.82.61,5.5,5.5,0,0,0-.7.88,8,8,0,0,0-.64,1.23A7.89,7.89,0,0,0,69.13,29a4.58,4.58,0,0,0-.13,1Zm9.56.87a9.93,9.93,0,0,1-.68.85,8.7,8.7,0,0,1-1,.92,6,6,0,0,1-1.15.74,2.73,2.73,0,0,1-1.22.3,1.72,1.72,0,0,1-1.23-.47,3.81,3.81,0,0,1-.85-1.36,5.49,5.49,0,0,1-.66.63,5.83,5.83,0,0,1-.86.58,5.65,5.65,0,0,1-1,.42,3.26,3.26,0,0,1-1,.17,2.57,2.57,0,0,1-1-.22,2.74,2.74,0,0,1-.9-.63,3,3,0,0,1-.62-1,3.55,3.55,0,0,1-.23-1.33,6.53,6.53,0,0,1,.23-1.71,11.34,11.34,0,0,1,.73-1.9,10.26,10.26,0,0,1,1.06-1.77,7.93,7.93,0,0,1,1.24-1.3A6,6,0,0,1,70.83,23a3.74,3.74,0,0,1,1.52-.33.69.69,0,0,1,.4.1A1,1,0,0,1,73,23l.19.25a.51.51,0,0,0,.22.18,1,1,0,0,0,.28.07l.28,0h.51a1.42,1.42,0,0,1,.32,0,.51.51,0,0,1,.25.15.72.72,0,0,1,.18.31,2,2,0,0,1,.06.55,6.8,6.8,0,0,1-.11,1.18c-.07.43-.16.88-.25,1.33s-.2,1-.33,1.55a7.35,7.35,0,0,0-.18,1.47,2.65,2.65,0,0,0,.09.8.39.39,0,0,0,.41.29,1.17,1.17,0,0,0,.49-.12,3.13,3.13,0,0,0,.52-.3,5.9,5.9,0,0,0,.52-.43c.18-.16.34-.32.5-.49A17.3,17.3,0,0,0,78,28.47l.53,2.45"/><path id="text_text--t-root" data-name="text text--t-root" class="cls-3" d="M84.45,31.31a9.85,9.85,0,0,1-1,.79,10.62,10.62,0,0,1-1.29.77,9.78,9.78,0,0,1-1.41.59,4.41,4.41,0,0,1-1.36.23,2.6,2.6,0,0,1-1-.16,1.67,1.67,0,0,1-.64-.45,1.71,1.71,0,0,1-.35-.71,3.66,3.66,0,0,1-.11-.92,10.17,10.17,0,0,1,.16-1.64c.21-1.29.35-2,.41-2.18.1-.32,1.41-7.21,1.71-8.3.28-.89.46-1.46.52-1.73a.92.92,0,0,1,.31-.51,2,2,0,0,1,.52-.33,2.8,2.8,0,0,1,.61-.19,2.86,2.86,0,0,1,.56-.06.87.87,0,0,1,.62.17.65.65,0,0,1,.16.46,2.8,2.8,0,0,1-.12.69l-.26,1q-.15.57-.43,1.47c-.19.6-1.43,7.31-1.5,7.73s-.16.84-.27,1.26a4.55,4.55,0,0,0-.16,1.14,2.37,2.37,0,0,0,.11.8.45.45,0,0,0,.46.3,1.84,1.84,0,0,0,.89-.28,8,8,0,0,0,1-.67c.33-.26.66-.54,1-.82l.85-.72v2.26"/><path id="text_text--a-2" data-name="text text--a" class="cls-3" d="M86.44,30.05a3.75,3.75,0,0,0,0,.56,1.7,1.7,0,0,0,.14.48,1,1,0,0,0,.27.35.68.68,0,0,0,.42.13,1,1,0,0,0,.75-.36,3.51,3.51,0,0,0,.58-.86,6.22,6.22,0,0,0,.4-1,6.13,6.13,0,0,0,.19-.9l.83-3.62a1.91,1.91,0,0,0-.89.23,3.27,3.27,0,0,0-.82.61,5.52,5.52,0,0,0-.71.88A7.64,7.64,0,0,0,87,27.73,7.53,7.53,0,0,0,86.56,29a4.58,4.58,0,0,0-.13,1Zm9.56.87c-.17.24-.4.52-.69.85a8,8,0,0,1-1,.92,5.92,5.92,0,0,1-1.14.74,2.75,2.75,0,0,1-1.23.3,1.72,1.72,0,0,1-1.23-.47,3.81,3.81,0,0,1-.85-1.36,5.49,5.49,0,0,1-.66.63,5.83,5.83,0,0,1-.86.58,5.5,5.5,0,0,1-1,.42,3.21,3.21,0,0,1-1,.17,2.57,2.57,0,0,1-1-.22,2.74,2.74,0,0,1-.9-.63,3.17,3.17,0,0,1-.62-1,3.55,3.55,0,0,1-.23-1.33,6.53,6.53,0,0,1,.23-1.71,11.34,11.34,0,0,1,.73-1.9,10.26,10.26,0,0,1,1.06-1.77,7.93,7.93,0,0,1,1.24-1.3A6,6,0,0,1,88.26,23a3.74,3.74,0,0,1,1.52-.33.72.72,0,0,1,.41.1,1.06,1.06,0,0,1,.24.23l.19.25a.53.53,0,0,0,.22.18,1.08,1.08,0,0,0,.28.07l.29,0h.5a1.42,1.42,0,0,1,.32,0,.54.54,0,0,1,.26.15.77.77,0,0,1,.17.31,2,2,0,0,1,.06.55,7.23,7.23,0,0,1-.11,1.18c-.08.43-.16.88-.26,1.33L92,28.6a7.39,7.39,0,0,0-.19,1.47,2.65,2.65,0,0,0,.09.8.39.39,0,0,0,.41.29,1.19,1.19,0,0,0,.49-.12,3.09,3.09,0,0,0,.52-.3,5.32,5.32,0,0,0,.52-.43,6.82,6.82,0,0,0,.5-.49,16.33,16.33,0,0,0,1.1-1.35L96,30.92"/><path id="text_text--t-crossbar" data-name="text text--t-crossbar" class="cls-3" d="M82.88,21.71a.68.68,0,0,1,.3,0h2.67a.33.33,0,0,1,.3.23,1.64,1.64,0,0,1,.12.59,1.11,1.11,0,0,1-.16.69.55.55,0,0,1-.42.28l-3.8.19-3.3-.19-.47-.07-.35-.07-.47-.07-.83-.08a.74.74,0,0,1-.38-.12.64.64,0,0,1-.2-.24,1,1,0,0,1-.09-.3c0-.1,0-.19,0-.27a.29.29,0,0,1,.18-.28,1.8,1.8,0,0,1,.49-.16,5.07,5.07,0,0,1,.67-.09l.7,0h.6a1.72,1.72,0,0,0,.36,0l4.13.07"/></g></svg>