<svg id="ember-data-dark-background" xmlns="http://www.w3.org/2000/svg" viewBox="0 0 96 48"><defs><style>.cls-1{isolation:isolate;font-size:3.99px;font-family:ArialMT, Arial;}.cls-1,.cls-2{fill:#e3392c;}.cls-3{fill:#fff;}</style></defs><title>ember-data-logo-dark-background</title><text class="cls-1" transform="translate(48.22 34.44)">®</text><path id="text_text--ember" data-name="text text--ember" class="cls-2" d="M56.58,27.89a.65.65,0,0,0-.95-.6,4.49,4.49,0,0,1-2.59.95c-1.21-.12-.83-2.83-.83-2.83s.26-2.48-.45-2.69-1.59.65-1.59.65a9,9,0,0,0-1.61,2.76l-.14,0a19.51,19.51,0,0,0,0-3.33c-.14-.31-1.45-.29-1.66.26a33.39,33.39,0,0,0-1.33,5.94,9.94,9.94,0,0,1-3.82,2c-1.79.29-2.21-.83-2.21-.83S44.2,28.88,44,25s-3.9-2.44-4.33-2.12a7.53,7.53,0,0,0-3.24,5.28c0,.12-.06.67-.06.67a16.74,16.74,0,0,1-2.92,1.59s2.92-4.92-.64-7.15c-1.62-1-2.9,1.07-2.9,1.07s4.82-5.37,3.75-9.9c-.51-2.16-1.59-2.39-2.58-2A4.49,4.49,0,0,0,29,13.87a16.59,16.59,0,0,0-2.4,7c-.45,4.2-1.12,9.29-1.12,9.29a3.54,3.54,0,0,1-1.78,1c-.85,0-.47-2.54-.47-2.54s.66-3.94.61-4.61-.09-1-.88-1.26-1.64.76-1.64.76-2.26,3.42-2.44,3.94l-.12.21-.12-.14s1.6-4.66.07-4.73-2.52,1.66-2.52,1.66-1.74,2.9-1.8,3.23l-.12-.14a23.11,23.11,0,0,0,.57-4.2.76.76,0,0,0-.93-.67s-1-.12-1.26.52a47.36,47.36,0,0,0-1.33,6.25s-2.49,1.78-4.13,1.8-1.47-1-1.47-1,6-2.06,4.37-6.12a3,3,0,0,0-2.8-1.35c-1.21,0-2.72.76-3.69,2.95a9.65,9.65,0,0,0-.73,2.78A2.26,2.26,0,0,1,1.3,28.2c-.57-.48-.87,0-.87,0s-1,1.25,0,1.63a12.48,12.48,0,0,0,2.49.56h0a4.56,4.56,0,0,0,1.73,2.7c1.79,1.35,5.2-.12,5.2-.12l1.4-.79s0,1.29,1.07,1.47,1.45,0,3.23-4.33c1-2.21,1.11-2.09,1.11-2.09l.12,0s-.81,4.23-.5,5.37,1.66,1,1.66,1,.74.14,1.33-1.95A30.52,30.52,0,0,1,21,27.25h.14s-.5,4.32.26,5.7,2.73.46,2.73.46a13.78,13.78,0,0,0,1.59-.91,5.61,5.61,0,0,0,3.95,1.14c5.15-1,7-2.38,7-2.38a4.26,4.26,0,0,0,3.63,2.45A6,6,0,0,0,45.15,32a1.91,1.91,0,0,0,1.07,1.73c1.09.45,1.83-2.08,1.83-2.08l1.83-5H50s.09,3.28,1.9,3.8,4.15-1.22,4.15-1.22a1.24,1.24,0,0,0,.47-1.26Zm-51.09.47c.07-2.83,1.93-4.06,2.57-3.44s.4,1.95-.81,2.78-1.76.66-1.76.66ZM29.6,17.41s1.69-4.39,2.09-2.26-3.54,8.5-3.54,8.5A48.75,48.75,0,0,1,29.6,17.41Zm2,12.23a2.79,2.79,0,0,1-3.82,1.73s-.31-1,.57-4,2.95-1.78,2.95-1.78,1.43,1.09.31,4Zm7.48-1.28a4,4,0,0,1,.71-2.71c1-1.78,1.74-.81,1.74-.81a1.76,1.76,0,0,1-.12,2.26,2.8,2.8,0,0,1-2.33,1.26"/><path id="text_text--d" data-name="text text--d" class="cls-3" d="M65,17.27c0-.52.07-.93.07-1.24A2.11,2.11,0,0,0,65,15.2a.33.33,0,0,0-.31-.23.82.82,0,0,0-.66.45,4,4,0,0,0-.47,1.16l-.39,1.55a13,13,0,0,0-.31,1.64c-.06.53-.12,1-.15,1.45s-.07.73-.09.91c0,.37-.05.73-.08,1.07s0,.66,0,.94,0,.53,0,.74v.6c.41-1,.8-2,1.14-3q.22-.63.43-1.31l.42-1.35q.21-.67.35-1.33a11.52,11.52,0,0,0,.2-1.25Zm-5.26,7.6a4.43,4.43,0,0,0-2.27,2.51c-.26.64-.45,1.2-.59,1.66a4.69,4.69,0,0,0-.2,1.26,1.16,1.16,0,0,0,0,.35.76.76,0,0,0,.18.31,1,1,0,0,0,.38.23,1.94,1.94,0,0,0,.64.09.91.91,0,0,0,.39-.09,1.7,1.7,0,0,0,.38-.23,2.34,2.34,0,0,0,.34-.33,3.79,3.79,0,0,0,.3-.38,6.59,6.59,0,0,0,.57-1,3.66,3.66,0,0,1-.05-.5c0-.23,0-.58,0-1s0-.85,0-1.15,0-.57,0-.82,0-.45,0-.61a.9.9,0,0,0,0-.22Zm7.72,6.58a19.37,19.37,0,0,1-1.56,1.16l-.68.42c-.24.14-.47.26-.7.37a5.5,5.5,0,0,1-.67.26,2,2,0,0,1-.6.1,2.42,2.42,0,0,1-.47-.07,2.45,2.45,0,0,1-.68-.29,3.12,3.12,0,0,1-.74-.63,3.73,3.73,0,0,1-.65-1.1,10.59,10.59,0,0,1-.88.81,6.48,6.48,0,0,1-1,.67,5.59,5.59,0,0,1-1,.46,3.19,3.19,0,0,1-1,.17,2.48,2.48,0,0,1-1.25-.3,2.7,2.7,0,0,1-.88-.8,3.54,3.54,0,0,1-.52-1.14A4.89,4.89,0,0,1,54,30.23a5.88,5.88,0,0,1,.19-1.47,6.75,6.75,0,0,1,.53-1.44c.24-.46.49-.95.78-1.45a5.34,5.34,0,0,1,1.13-1.38,5.41,5.41,0,0,1,1.46-.94,5.3,5.3,0,0,1,1.6-.4A11.64,11.64,0,0,1,60,20.61q.27-1.1.59-2.37a13.23,13.23,0,0,1,.81-2.34A10.08,10.08,0,0,1,62.52,14a5.17,5.17,0,0,1,1.27-1.22,2.5,2.5,0,0,1,1.39-.44,1.47,1.47,0,0,1,.89.27,2,2,0,0,1,.59.73,3.65,3.65,0,0,1,.33,1,7.34,7.34,0,0,1,.1,1.23c0,.27,0,.54,0,.82a10.16,10.16,0,0,1-.49,3l-.92,2.73a22.17,22.17,0,0,1-1.08,2.67c-.65,1.35-1.06,2.26-1.24,2.74,0,.11-.08.23-.12.38s-.07.31-.11.49-.06.36-.09.54a4.41,4.41,0,0,0,0,.54,4.51,4.51,0,0,0,0,.62,2.17,2.17,0,0,0,.12.52.93.93,0,0,0,.24.37.51.51,0,0,0,.36.14,1.46,1.46,0,0,0,.47-.08,3.58,3.58,0,0,0,.53-.23c.19-.1.37-.21.56-.33l.56-.38c.41-.3.83-.64,1.28-1l.33,2.32"/><path id="text_text--a" data-name="text text--a" class="cls-3" d="M69,30.14a3.74,3.74,0,0,0,0,.56,1.56,1.56,0,0,0,.14.48.89.89,0,0,0,.27.35.67.67,0,0,0,.42.13,1,1,0,0,0,.75-.36,3.41,3.41,0,0,0,.58-.86,6.63,6.63,0,0,0,.4-1,6.79,6.79,0,0,0,.19-.9l.83-3.62a1.91,1.91,0,0,0-.89.23,3.35,3.35,0,0,0-.82.61,5.51,5.51,0,0,0-.71.88,8.45,8.45,0,0,0-.63,1.23,7.47,7.47,0,0,0-.44,1.28,4.59,4.59,0,0,0-.13,1Zm9.56.87a10.08,10.08,0,0,1-.69.85,8.26,8.26,0,0,1-1,.92,6.1,6.1,0,0,1-1.15.74,2.73,2.73,0,0,1-1.22.3,1.73,1.73,0,0,1-1.24-.47A3.74,3.74,0,0,1,72.46,32a5.5,5.5,0,0,1-.66.63,6.11,6.11,0,0,1-.86.58,5.57,5.57,0,0,1-1,.42,3.21,3.21,0,0,1-1,.17,2.61,2.61,0,0,1-1-.22A2.67,2.67,0,0,1,67,33a3.1,3.1,0,0,1-.63-1,3.64,3.64,0,0,1-.23-1.33,6.53,6.53,0,0,1,.24-1.71,11,11,0,0,1,.73-1.9,10.25,10.25,0,0,1,1.06-1.77,7.57,7.57,0,0,1,1.24-1.3,6,6,0,0,1,1.42-.88,3.73,3.73,0,0,1,1.52-.33.69.69,0,0,1,.4.1,1,1,0,0,1,.24.23l.19.25a.54.54,0,0,0,.23.18,1,1,0,0,0,.28.07l.28,0h.51a1.38,1.38,0,0,1,.31,0,.5.5,0,0,1,.26.15.68.68,0,0,1,.17.32,1.82,1.82,0,0,1,.06.55,6.8,6.8,0,0,1-.11,1.18c-.07.43-.16.88-.25,1.33s-.2,1-.33,1.55a7.35,7.35,0,0,0-.18,1.47,2.65,2.65,0,0,0,.09.8.39.39,0,0,0,.41.29,1.19,1.19,0,0,0,.49-.12,3.14,3.14,0,0,0,.52-.3,6.59,6.59,0,0,0,.52-.43c.17-.16.34-.32.5-.49A17.33,17.33,0,0,0,78,28.56L78.57,31"/><path id="text_text--t-root" data-name="text text--t-root" class="cls-3" d="M84.45,31.41a9.73,9.73,0,0,1-1,.79,10.61,10.61,0,0,1-1.29.77,9.81,9.81,0,0,1-1.41.59,4.42,4.42,0,0,1-1.36.23,2.58,2.58,0,0,1-1-.16,1.63,1.63,0,0,1-.64-.45,1.77,1.77,0,0,1-.35-.71,3.89,3.89,0,0,1-.1-.92,10.11,10.11,0,0,1,.15-1.64c.22-1.29.36-2,.42-2.18.1-.32,1.41-7.22,1.71-8.3.28-.89.45-1.47.52-1.73a.92.92,0,0,1,.31-.51,2,2,0,0,1,.52-.33,2.8,2.8,0,0,1,.61-.19,2.85,2.85,0,0,1,.56-.06.85.85,0,0,1,.62.17.65.65,0,0,1,.16.46,3,3,0,0,1-.11.69l-.26,1q-.15.57-.43,1.47c-.19.6-1.43,7.31-1.5,7.73s-.16.84-.27,1.26a4.57,4.57,0,0,0-.16,1.14,2.36,2.36,0,0,0,.11.8.44.44,0,0,0,.46.3,1.83,1.83,0,0,0,.89-.28,7.71,7.71,0,0,0,1-.67c.33-.26.66-.54,1-.82l.85-.72v2.26"/><path id="text_text--a-2" data-name="text text--a" class="cls-3" d="M86.44,30.14a3.74,3.74,0,0,0,0,.56,1.7,1.7,0,0,0,.14.48.94.94,0,0,0,.27.35.67.67,0,0,0,.42.13,1,1,0,0,0,.75-.36,3.52,3.52,0,0,0,.58-.86,6.22,6.22,0,0,0,.4-1,6.13,6.13,0,0,0,.19-.9l.83-3.62a1.9,1.9,0,0,0-.89.23,3.29,3.29,0,0,0-.82.61,5.25,5.25,0,0,0-.7.88A8,8,0,0,0,87,27.82a7.88,7.88,0,0,0-.44,1.28,4.59,4.59,0,0,0-.13,1ZM96,31a9.92,9.92,0,0,1-.68.85,8.68,8.68,0,0,1-1,.92,6,6,0,0,1-1.15.74,2.72,2.72,0,0,1-1.22.3,1.72,1.72,0,0,1-1.23-.47A3.81,3.81,0,0,1,89.89,32a5.5,5.5,0,0,1-.66.63,5.86,5.86,0,0,1-.86.58,5.68,5.68,0,0,1-1,.42,3.23,3.23,0,0,1-1,.17,2.57,2.57,0,0,1-1-.22,2.65,2.65,0,0,1-.9-.63,3,3,0,0,1-.62-1,3.55,3.55,0,0,1-.24-1.33,6.53,6.53,0,0,1,.24-1.71,11,11,0,0,1,.73-1.9,10.25,10.25,0,0,1,1.06-1.77,7.74,7.74,0,0,1,1.24-1.3,6,6,0,0,1,1.42-.88,3.74,3.74,0,0,1,1.52-.33.69.69,0,0,1,.4.1,1,1,0,0,1,.24.23l.18.25a.57.57,0,0,0,.23.18,1,1,0,0,0,.28.07l.29,0h.5a1.36,1.36,0,0,1,.31,0,.54.54,0,0,1,.26.15.77.77,0,0,1,.17.32,2,2,0,0,1,.06.55,7.23,7.23,0,0,1-.11,1.18q-.12.65-.26,1.33c-.09.45-.2,1-.33,1.55a7.35,7.35,0,0,0-.18,1.47,2.65,2.65,0,0,0,.09.8.39.39,0,0,0,.41.29,1.21,1.21,0,0,0,.49-.12,3.3,3.3,0,0,0,.52-.3,5.86,5.86,0,0,0,.52-.43c.18-.16.34-.32.5-.49a17.33,17.33,0,0,0,1.1-1.35L96,31"/><path id="text_text--t-crossbar" data-name="text text--t-crossbar" class="cls-3" d="M82.88,21.8a.66.66,0,0,1,.29,0h2.67a.33.33,0,0,1,.3.23,1.74,1.74,0,0,1,.12.59,1.11,1.11,0,0,1-.16.69.56.56,0,0,1-.42.28l-3.81.19-3.3-.19-.47-.07-.35-.07-.47-.07-.83-.08a.77.77,0,0,1-.38-.12.68.68,0,0,1-.2-.24,1,1,0,0,1-.08-.3,2.15,2.15,0,0,1,0-.27.29.29,0,0,1,.18-.28,1.89,1.89,0,0,1,.49-.16,5.11,5.11,0,0,1,.66-.09l.7,0h.6a1.71,1.71,0,0,0,.36,0l4.13.07"/></svg>